<svg data-v-423bf9ae="" xmlns="http://www.w3.org/2000/svg" viewBox="0 0 251 108" class="iconLeftSlogan"><!----><!----><!----><g data-v-423bf9ae="" id="3f5a0798-d73d-4b59-940c-0dafb82b8530" fill="#ffffff" transform="matrix(4.731861084854148,0,0,4.731861084854148,102.63183596112499,-11.261830877145712)"><path d="M4.33 14.76C3.25 14.76 2.73 14.53 2.16 14.03C1.67 13.61 1.40 13.03 1.40 12.40C1.40 11.34 2.20 10.25 3.54 10.25C4.07 10.25 4.51 10.39 4.77 10.65C5.01 10.86 5.14 11.19 5.14 11.52C5.14 12.15 4.70 12.82 4.06 12.82C3.70 12.82 3.42 12.73 3.23 12.53C2.91 12.21 2.93 11.72 2.93 11.72L2.66 11.70C2.65 11.73 2.63 12.31 3.04 12.71C3.28 12.96 3.63 13.10 4.06 13.10C4.86 13.10 5.40 12.29 5.40 11.52C5.40 11.10 5.25 10.72 4.96 10.46C4.63 10.15 4.14 9.98 3.54 9.98C2.03 9.98 1.13 11.21 1.13 12.40C1.13 13.12 1.43 13.76 1.97 14.22C2.60 14.77 3.54 15.06 4.68 15.06C7.45 15.06 9.21 13.58 9.21 11.48C9.21 9.53 7.06 8.74 5.85 7.62C6.64 7.42 7.32 7.00 7.55 6.83C7.78 6.97 8.09 7.04 8.44 7.04C9.84 7.04 10.61 5.96 10.61 4.93C10.61 4.35 10.39 3.81 9.97 3.42C9.49 2.98 8.79 2.73 7.95 2.73C5.47 2.73 3.37 4.31 3.37 6.83C3.37 7.00 3.37 7.15 3.40 7.31C2.56 7.03 2.18 6.44 2.02 5.94C1.65 4.80 2.09 3.25 2.97 2.60L2.81 2.38C1.83 3.11 1.36 4.77 1.76 6.02C1.93 6.52 2.35 7.28 3.44 7.60C4.02 10.08 7.43 9.97 7.43 12.56C7.43 13.86 6.33 14.76 4.33 14.76ZM7.35 6.68C7.13 6.83 6.43 7.25 5.61 7.43C4.03 6.36 4.89 3.00 7.95 3.00C8.72 3.00 9.35 3.22 9.79 3.61C10.15 3.96 10.35 4.42 10.35 4.93C10.35 5.84 9.67 6.80 8.44 6.80C8.19 6.80 7.98 6.75 7.80 6.66C8.43 6.10 8.82 5.38 8.82 4.72C8.82 4.05 8.48 3.70 7.88 3.70C7.13 3.70 6.71 4.33 6.71 5.12C6.71 5.71 6.93 6.30 7.35 6.68ZM7.87 3.95C8.32 3.95 8.54 4.20 8.54 4.72C8.54 5.38 8.11 6.12 7.56 6.51C7.17 6.19 6.99 5.64 6.99 5.12C6.99 4.44 7.29 3.95 7.87 3.95ZM13.73 4.52C13.73 4.52 13.09 4.65 12.01 4.65C11.89 5.38 11.75 6.06 11.63 6.72L10.92 6.72L10.89 6.97L11.58 6.97C11.26 8.72 11.00 10.14 11.00 10.78C11.00 11.66 11.70 12.17 12.57 12.17C13.85 12.17 14.43 11.14 14.71 9.95L14.46 9.87C14.28 10.64 13.75 11.77 12.99 11.77C12.74 11.77 12.56 11.62 12.56 11.33C12.56 10.81 12.92 8.71 13.26 6.97L15.01 6.97L15.04 6.72L13.30 6.72C13.54 5.50 13.73 4.52 13.73 4.52ZM15.57 7.27C15.75 7.04 15.99 6.90 16.27 6.87L15.34 12.04L17.02 12.04L17.53 9.25L17.53 9.24C17.57 9.10 18.23 6.92 19.39 6.92C19.77 6.92 20.10 7.03 20.10 7.77C20.10 8.72 18.90 9.51 18.90 10.51L19.24 10.51C19.24 9.63 20.47 8.82 20.47 7.71C20.47 6.93 20.12 6.59 19.39 6.59C18.69 6.59 18.19 7.00 17.75 7.91L17.75 7.83C17.75 7.04 17.28 6.59 16.41 6.59C15.99 6.59 15.62 6.78 15.36 7.10ZM23.79 6.59C21.97 6.59 20.75 7.90 20.75 10.15C20.75 11.37 21.50 12.17 23.04 12.17C25.21 12.17 25.59 10.32 25.59 10.32L25.34 10.21C25.34 10.22 24.84 11.84 23.35 11.84C22.81 11.84 22.33 11.51 22.33 10.61C22.33 10.33 22.34 10.07 22.36 9.81C24.37 9.80 25.56 9.20 25.56 8.01C25.56 7.15 25.06 6.59 23.79 6.59ZM24.19 6.94C24.85 6.94 25.21 7.41 25.21 8.01C25.21 8.89 24.49 9.48 22.40 9.49C22.64 7.70 23.46 6.94 24.19 6.94ZM29.34 6.59C27.52 6.59 26.31 7.90 26.31 10.15C26.31 11.37 27.06 12.17 28.60 12.17C30.77 12.17 31.15 10.32 31.15 10.32L30.90 10.21C30.90 10.22 30.39 11.84 28.91 11.84C28.36 11.84 27.89 11.51 27.89 10.61C27.89 10.33 27.90 10.07 27.92 9.81C29.93 9.80 31.12 9.20 31.12 8.01C31.12 7.15 30.62 6.59 29.34 6.59ZM29.75 6.94C30.41 6.94 30.77 7.41 30.77 8.01C30.77 8.89 30.04 9.48 27.96 9.49C28.20 7.70 29.02 6.94 29.75 6.94Z"></path></g><!----><g data-v-423bf9ae="" id="a3ec8c4a-2e20-43e8-8e82-b671b1805b2a" transform="matrix(1.0927555508083768,0,0,1.0927555508083768,-9.89332060610218,-0.8883933873489411)" stroke="none" fill="#5D0B3D"><path d="M33.822 100h56.434s-1.412-8.549-11.522-11.821c0 0 .205-1.28.501-3.521 1.458-11.069 5.108-45.614-2.938-65.462-1.519-3.251-3.279-5.836-5.217-7.741-2.807-2.767-5.746-5.075-8.876-6.758-4.38-2.002-8.413-2.961-12.166-3.044L50 1.652l-.038.001c-3.752.083-7.786 1.042-12.165 3.044-3.13 1.684-6.07 3.991-8.878 6.758-1.935 1.905-3.697 4.489-5.216 7.74-8.043 19.845-4.396 54.379-2.937 65.458.295 2.246.501 3.527.501 3.527C11.158 91.451 9.745 100 9.745 100h16.603c4.184-.867 9.679-2.755 15.035-4.831 3.998-1.549 7.918-3.207 11.155-4.621-8.474 1.694-14.319-2.815-14.319-2.815v-.594c5.395-4.855 5.152-9.476 4.615-11.644 1.924.972 3.673 1.62 5.018 1.974.563.134 1.688.32 2.817.042.001 0 .004 0 .006-.002a20.284 20.284 0 0 0 3.804-1.56c.307-.16.609-.329.909-.503.279-.16.557-.328.83-.503a7.782 7.782 0 0 0-.144.503c-.04.157-.079.322-.112.503-.441 2.29-.333 6.547 4.54 11.03l1.6 1.381c-.506.24-7.335 3.487-15.396 6.809-4.201 1.731-8.734 3.477-12.884 4.831zm27.34-30.999a33.998 33.998 0 0 1-3.807 2.996c-1.904 1.278-3.972 2.34-6.174 2.976l-.005.001c-.041.012-.081.015-.121.023a5.702 5.702 0 0 1-1.713.088 5.697 5.697 0 0 1-1.712-.088c-.042-.009-.082-.012-.121-.023l-.006-.001c-2.198-.636-4.27-1.697-6.172-2.976a33.92 33.92 0 0 1-3.806-2.996c-4.864-4.401-7.979-9.441-8.251-9.805-.447-.595-4.61-2.529-5.949-4.016-.445-2.379 1.487-6.726 1.487-6.726l3.717 5.982c-5.186-18.087 15.645-28.984 20.1-31.083 0 0 .766-3.653.864-5.744l.625 5.775c4.589 2.172 25.197 13.051 20.035 31.053l3.719-5.982s1.933 4.347 1.486 6.726c-1.34 1.486-5.502 3.421-5.948 4.016-.273.363-3.389 5.403-8.248 9.804z"></path></g><!----><g data-v-423bf9ae="" id="f87fd4c9-0457-4345-bdef-1e3fe6ad3d4a" fill="#ffffff" transform="matrix(0.5363177963757558,0,0,0.5363177963757558,107.19581085170911,58.0478044370333)"><path d="M2.16 12.38L7.70 12.38L7.70 13.02L1.46 13.02L1.46 3.78L2.16 3.78L2.16 12.38ZM17.16 3.78L17.16 13.02L16.46 13.02L16.46 3.78L17.16 3.78ZM33.89 3.78L30.34 13.02L29.51 13.02L25.94 3.78L26.70 3.78L29.43 10.93L29.92 12.36L30.41 10.93L33.15 3.78L33.89 3.78ZM43.37 12.38L49.21 12.38L49.21 13.02L42.67 13.02L42.67 3.78L48.99 3.78L48.99 4.42L43.37 4.42L43.37 7.99L47.81 7.99L47.81 8.65L43.37 8.65L43.37 12.38ZM75.92 4.42L70.32 4.42L70.32 7.99L74.76 7.99L74.76 8.65L70.32 8.65L70.32 13.02L69.62 13.02L69.62 3.78L75.92 3.78L75.92 4.42ZM85.50 12.38L91.34 12.38L91.34 13.02L84.80 13.02L84.80 3.78L91.11 3.78L91.11 4.42L85.50 4.42L85.50 7.99L89.94 7.99L89.94 8.65L85.50 8.65L85.50 12.38ZM106.65 13.02L105.49 10.12L101.07 10.12L99.92 13.02L99.18 13.02L102.87 3.78L103.70 3.78L107.39 13.02L106.65 13.02ZM101.33 9.48L105.24 9.48L103.63 5.45L103.29 4.47L103.28 4.47L102.94 5.42L101.33 9.48ZM123.06 13.02L122.23 13.02L119.59 9.02L119.55 9.02L116.82 9.02L116.82 13.02L116.12 13.02L116.12 3.78L119.55 3.78L119.55 3.78Q120.93 3.78 121.75 4.48L121.75 4.48L121.75 4.48Q122.57 5.18 122.57 6.40L122.57 6.40L122.57 6.40Q122.57 7.41 121.98 8.07L121.98 8.07L121.98 8.07Q121.39 8.74 120.37 8.93L120.37 8.93L123.06 13.02ZM116.82 4.42L116.82 8.36L119.53 8.36L119.53 8.36Q120.65 8.36 121.25 7.85L121.25 7.85L121.25 7.85Q121.84 7.35 121.84 6.40L121.84 6.40L121.84 6.40Q121.84 5.45 121.25 4.93L121.25 4.93L121.25 4.93Q120.65 4.42 119.53 4.42L119.53 4.42L116.82 4.42ZM132.78 12.38L138.32 12.38L138.32 13.02L132.08 13.02L132.08 3.78L132.78 3.78L132.78 12.38ZM147.78 12.38L153.62 12.38L153.62 13.02L147.08 13.02L147.08 3.78L153.40 3.78L153.40 4.42L147.78 4.42L147.78 7.99L152.22 7.99L152.22 8.65L147.78 8.65L147.78 12.38ZM165.51 3.64L165.51 3.64Q168.11 3.64 168.99 5.68L168.99 5.68L168.39 6.17L168.39 6.17Q168.04 5.18 167.35 4.73L167.35 4.73L167.35 4.73Q166.66 4.28 165.52 4.28L165.52 4.28L165.52 4.28Q164.71 4.28 164.11 4.54L164.11 4.54L164.11 4.54Q163.51 4.79 163.19 5.22L163.19 5.22L163.19 5.22Q162.88 5.66 162.88 6.20L162.88 6.20L162.88 6.20Q162.88 6.73 163.14 7.08L163.14 7.08L163.14 7.08Q163.41 7.43 164.05 7.68L164.05 7.68L164.05 7.68Q164.68 7.92 165.80 8.12L165.80 8.12L165.80 8.12Q167.61 8.43 168.36 9.02L168.36 9.02L168.36 9.02Q169.12 9.60 169.12 10.64L169.12 10.64L169.12 10.64Q169.12 11.38 168.69 11.96L168.69 11.96L168.69 11.96Q168.25 12.53 167.46 12.84L167.46 12.84L167.46 12.84Q166.67 13.16 165.65 13.16L165.65 13.16L165.65 13.16Q164.19 13.16 163.19 12.58L163.19 12.58L163.19 12.58Q162.19 12.00 161.83 10.95L161.83 10.95L162.44 10.47L162.44 10.47Q162.72 11.47 163.57 11.99L163.57 11.99L163.57 11.99Q164.42 12.52 165.66 12.52L165.66 12.52L165.66 12.52Q166.87 12.52 167.63 12.03L167.63 12.03L167.63 12.03Q168.39 11.54 168.39 10.68L168.39 10.68L168.39 10.68Q168.39 9.94 167.77 9.51L167.77 9.51L167.77 9.51Q167.15 9.07 165.61 8.81L165.61 8.81L165.61 8.81Q164.30 8.58 163.55 8.26L163.55 8.26L163.55 8.26Q162.79 7.94 162.46 7.46L162.46 7.46L162.46 7.46Q162.13 6.99 162.13 6.27L162.13 6.27L162.13 6.27Q162.13 5.56 162.55 4.96L162.55 4.96L162.55 4.96Q162.96 4.35 163.72 4.00L163.72 4.00L163.72 4.00Q164.49 3.64 165.51 3.64L165.51 3.64ZM181.17 3.64L181.17 3.64Q183.78 3.64 184.66 5.68L184.66 5.68L184.06 6.17L184.06 6.17Q183.71 5.18 183.02 4.73L183.02 4.73L183.02 4.73Q182.32 4.28 181.19 4.28L181.19 4.28L181.19 4.28Q180.38 4.28 179.77 4.54L179.77 4.54L179.77 4.54Q179.17 4.79 178.86 5.22L178.86 5.22L178.86 5.22Q178.54 5.66 178.54 6.20L178.54 6.20L178.54 6.20Q178.54 6.73 178.81 7.08L178.81 7.08L178.81 7.08Q179.07 7.43 179.71 7.68L179.71 7.68L179.71 7.68Q180.35 7.92 181.47 8.12L181.47 8.12L181.47 8.12Q183.27 8.43 184.03 9.02L184.03 9.02L184.03 9.02Q184.79 9.60 184.79 10.64L184.79 10.64L184.79 10.64Q184.79 11.38 184.35 11.96L184.35 11.96L184.35 11.96Q183.92 12.53 183.13 12.84L183.13 12.84L183.13 12.84Q182.34 13.16 181.31 13.16L181.31 13.16L181.31 13.16Q179.86 13.16 178.86 12.58L178.86 12.58L178.86 12.58Q177.86 12.00 177.49 10.95L177.49 10.95L178.11 10.47L178.11 10.47Q178.39 11.47 179.24 11.99L179.24 11.99L179.24 11.99Q180.08 12.52 181.33 12.52L181.33 12.52L181.33 12.52Q182.53 12.52 183.30 12.03L183.30 12.03L183.30 12.03Q184.06 11.54 184.06 10.68L184.06 10.68L184.06 10.68Q184.06 9.94 183.44 9.51L183.44 9.51L183.44 9.51Q182.81 9.07 181.27 8.81L181.27 8.81L181.27 8.81Q179.97 8.58 179.21 8.26L179.21 8.26L179.21 8.26Q178.46 7.94 178.13 7.46L178.13 7.46L178.13 7.46Q177.80 6.99 177.80 6.27L177.80 6.27L177.80 6.27Q177.80 5.56 178.21 4.96L178.21 4.96L178.21 4.96Q178.63 4.35 179.39 4.00L179.39 4.00L179.39 4.00Q180.15 3.64 181.17 3.64L181.17 3.64ZM194.68 12.38L200.23 12.38L200.23 13.02L193.98 13.02L193.98 3.78L194.68 3.78L194.68 12.38ZM213.35 3.78L210.07 9.42L210.07 13.02L209.37 13.02L209.37 9.42L206.09 3.78L206.92 3.78L209.72 8.69L212.52 3.78L213.35 3.78Z"></path></g></svg>