<svg data-v-fde0c5aa="" xmlns="http://www.w3.org/2000/svg" viewBox="0 0 300 300" class="font"><!----><defs data-v-fde0c5aa=""><!----></defs><rect data-v-fde0c5aa="" fill="#FF3E59" x="0" y="0" width="300px" height="300px" class="logo-background-square"></rect><defs data-v-fde0c5aa=""><!----></defs><g data-v-fde0c5aa="" id="3b907211-54be-4cfc-9097-8a67a8cd5245" fill="#ffffff" transform="matrix(7.328447589783575,0,0,7.328447589783575,31.718854258489323,86.09593506018061)"><path d="M4.33 14.76C3.25 14.76 2.73 14.53 2.16 14.03C1.67 13.61 1.40 13.03 1.40 12.40C1.40 11.34 2.20 10.25 3.54 10.25C4.07 10.25 4.51 10.39 4.77 10.65C5.01 10.86 5.14 11.19 5.14 11.52C5.14 12.15 4.70 12.82 4.06 12.82C3.70 12.82 3.42 12.73 3.23 12.53C2.91 12.21 2.93 11.72 2.93 11.72L2.66 11.70C2.65 11.73 2.63 12.31 3.04 12.71C3.28 12.96 3.63 13.10 4.06 13.10C4.86 13.10 5.40 12.29 5.40 11.52C5.40 11.10 5.25 10.72 4.96 10.46C4.63 10.15 4.14 9.98 3.54 9.98C2.03 9.98 1.13 11.21 1.13 12.40C1.13 13.12 1.43 13.76 1.97 14.22C2.60 14.77 3.54 15.06 4.68 15.06C7.45 15.06 9.21 13.58 9.21 11.48C9.21 9.53 7.06 8.74 5.85 7.62C6.64 7.42 7.32 7.00 7.55 6.83C7.78 6.97 8.09 7.04 8.44 7.04C9.84 7.04 10.61 5.96 10.61 4.93C10.61 4.35 10.39 3.81 9.97 3.42C9.49 2.98 8.79 2.73 7.95 2.73C5.47 2.73 3.37 4.31 3.37 6.83C3.37 7.00 3.37 7.15 3.40 7.31C2.56 7.03 2.18 6.44 2.02 5.94C1.65 4.80 2.09 3.25 2.97 2.60L2.81 2.38C1.83 3.11 1.36 4.77 1.76 6.02C1.93 6.52 2.35 7.28 3.44 7.60C4.02 10.08 7.43 9.97 7.43 12.56C7.43 13.86 6.33 14.76 4.33 14.76ZM7.35 6.68C7.13 6.83 6.43 7.25 5.61 7.43C4.03 6.36 4.89 3.00 7.95 3.00C8.72 3.00 9.35 3.22 9.79 3.61C10.15 3.96 10.35 4.42 10.35 4.93C10.35 5.84 9.67 6.80 8.44 6.80C8.19 6.80 7.98 6.75 7.80 6.66C8.43 6.10 8.82 5.38 8.82 4.72C8.82 4.05 8.48 3.70 7.88 3.70C7.13 3.70 6.71 4.33 6.71 5.12C6.71 5.71 6.93 6.30 7.35 6.68ZM7.87 3.95C8.32 3.95 8.54 4.20 8.54 4.72C8.54 5.38 8.11 6.12 7.56 6.51C7.17 6.19 6.99 5.64 6.99 5.12C6.99 4.44 7.29 3.95 7.87 3.95ZM13.73 4.52C13.73 4.52 13.09 4.65 12.01 4.65C11.89 5.38 11.75 6.06 11.63 6.72L10.92 6.72L10.89 6.97L11.58 6.97C11.26 8.72 11.00 10.14 11.00 10.78C11.00 11.66 11.70 12.17 12.57 12.17C13.85 12.17 14.43 11.14 14.71 9.95L14.46 9.87C14.28 10.64 13.75 11.77 12.99 11.77C12.74 11.77 12.56 11.62 12.56 11.33C12.56 10.81 12.92 8.71 13.26 6.97L15.01 6.97L15.04 6.72L13.30 6.72C13.54 5.50 13.73 4.52 13.73 4.52ZM15.57 7.27C15.75 7.04 15.99 6.90 16.27 6.87L15.34 12.04L17.02 12.04L17.53 9.25L17.53 9.24C17.57 9.10 18.23 6.92 19.39 6.92C19.77 6.92 20.10 7.03 20.10 7.77C20.10 8.72 18.90 9.51 18.90 10.51L19.24 10.51C19.24 9.63 20.47 8.82 20.47 7.71C20.47 6.93 20.12 6.59 19.39 6.59C18.69 6.59 18.19 7.00 17.75 7.91L17.75 7.83C17.75 7.04 17.28 6.59 16.41 6.59C15.99 6.59 15.62 6.78 15.36 7.10ZM23.79 6.59C21.97 6.59 20.75 7.90 20.75 10.15C20.75 11.37 21.50 12.17 23.04 12.17C25.21 12.17 25.59 10.32 25.59 10.32L25.34 10.21C25.34 10.22 24.84 11.84 23.35 11.84C22.81 11.84 22.33 11.51 22.33 10.61C22.33 10.33 22.34 10.07 22.36 9.81C24.37 9.80 25.56 9.20 25.56 8.01C25.56 7.15 25.06 6.59 23.79 6.59ZM24.19 6.94C24.85 6.94 25.21 7.41 25.21 8.01C25.21 8.89 24.49 9.48 22.40 9.49C22.64 7.70 23.46 6.94 24.19 6.94ZM29.34 6.59C27.52 6.59 26.31 7.90 26.31 10.15C26.31 11.37 27.06 12.17 28.60 12.17C30.77 12.17 31.15 10.32 31.15 10.32L30.90 10.21C30.90 10.22 30.39 11.84 28.91 11.84C28.36 11.84 27.89 11.51 27.89 10.61C27.89 10.33 27.90 10.07 27.92 9.81C29.93 9.80 31.12 9.20 31.12 8.01C31.12 7.15 30.62 6.59 29.34 6.59ZM29.75 6.94C30.41 6.94 30.77 7.41 30.77 8.01C30.77 8.89 30.04 9.48 27.96 9.49C28.20 7.70 29.02 6.94 29.75 6.94Z"></path></g><!----><!----></svg>